<?xml version="1.0" standalone="no"?>
<!DOCTYPE svg PUBLIC "-//W3C//DTD SVG 20010904//EN"
 "http://www.w3.org/TR/2001/REC-SVG-20010904/DTD/svg10.dtd">
<svg version="1.0" xmlns="http://www.w3.org/2000/svg"
 width="1024.000000pt" height="1024.000000pt" viewBox="0 0 1024.000000 1024.000000"
 preserveAspectRatio="xMidYMid meet">

<g transform="translate(0.000000,1024.000000) scale(0.100000,-0.100000)"
fill="#000000" stroke="none">
<path d="M7330 8848 c-71 -37 -129 -102 -149 -168 -20 -66 -14 -151 14 -204
l25 -47 -25 -9 c-222 -84 -370 -194 -471 -350 -121 -188 -154 -345 -154 -746
0 -355 -50 -527 -212 -725 -46 -56 -58 -78 -58 -106 0 -47 24 -95 63 -124 l32
-24 349 -5 349 -5 13 -53 c20 -75 40 -110 100 -168 70 -69 141 -97 249 -98
103 -1 183 33 250 105 47 50 95 138 95 174 1 49 -6 49 359 41 376 -7 389 -5
430 52 33 48 29 109 -12 158 -86 102 -147 218 -193 370 -27 88 -28 94 -34 459
-6 338 -9 377 -29 448 -56 200 -169 357 -344 476 -55 37 -165 93 -219 110 -21
7 -38 16 -38 19 0 4 9 31 20 60 26 67 25 137 -1 207 -25 68 -66 116 -127 152
-37 22 -61 28 -131 31 -82 4 -89 2 -151 -30z m214 -179 c48 -57 46 -112 -6
-161 -23 -22 -40 -28 -73 -28 -102 0 -151 121 -78 194 21 21 35 26 78 26 47 0
56 -4 79 -31z m64 -375 c255 -53 473 -235 553 -464 22 -62 24 -83 30 -460 6
-390 9 -425 45 -541 4 -15 -65 -17 -775 -24 -429 -4 -784 -4 -789 -1 -6 4 -3
30 9 66 34 109 41 181 49 510 8 362 12 388 80 526 68 139 199 262 362 339 133
64 284 80 436 49z m750 -1713 c28 -44 52 -83 52 -87 0 -4 -186 -4 -412 -1
-227 4 -665 7 -973 7 l-559 0 40 43 c23 23 53 59 69 80 l27 37 852 0 851 0 53
-79z m-748 -260 c0 -4 -10 -23 -23 -42 -58 -87 -190 -92 -260 -10 -49 59 -44
61 128 61 85 0 155 -4 155 -9z"/>
<path d="M7355 8154 c-38 -9 -108 -34 -155 -56 -142 -68 -239 -185 -304 -365
l-31 -88 -3 -308 c-4 -342 -1 -357 57 -357 58 0 59 5 63 350 4 295 6 319 26
374 74 199 218 317 424 346 77 11 108 30 108 65 0 54 -56 66 -185 39z"/>
<path d="M5827 8601 c-99 -106 -191 -271 -246 -443 -43 -136 -55 -222 -54
-383 1 -285 84 -530 253 -753 71 -93 95 -107 129 -73 29 29 27 42 -20 97 -144
173 -242 429 -255 669 -17 303 72 575 267 808 53 64 59 85 31 110 -31 28 -57
20 -105 -32z"/>
<path d="M8996 8608 c-9 -12 -16 -27 -16 -33 1 -5 31 -47 69 -92 177 -216 260
-471 248 -758 -10 -232 -115 -486 -275 -669 -70 -79 -70 -136 -1 -136 33 0 95
66 173 184 98 147 167 315 196 474 18 99 13 342 -9 447 -39 190 -146 409 -264
540 -64 71 -94 82 -121 43z"/>
<path d="M6060 8353 c-62 -71 -141 -227 -172 -343 -18 -70 -22 -110 -22 -230
1 -172 19 -253 88 -397 62 -128 119 -203 154 -203 68 1 73 37 17 122 -108 161
-148 289 -149 478 -1 190 48 340 163 495 28 38 51 74 51 80 0 6 -7 21 -16 33
-26 37 -57 28 -114 -35z"/>
<path d="M8773 8390 c-35 -14 -30 -61 12 -115 57 -76 102 -165 131 -260 35
-121 38 -298 5 -420 -27 -101 -93 -241 -149 -318 -45 -62 -52 -101 -21 -120
33 -20 67 1 120 76 135 190 206 450 179 656 -6 47 -18 111 -27 141 -25 90
-119 273 -166 324 -46 49 -49 50 -84 36z"/>
<path d="M8541 8174 c-24 -17 -28 -60 -7 -89 7 -11 26 -54 41 -95 56 -152 43
-344 -31 -479 -20 -37 -34 -74 -32 -89 4 -34 30 -49 65 -37 36 13 102 141 127
249 27 111 19 274 -18 376 -49 140 -99 196 -145 164z"/>
<path d="M6281 8132 c-85 -120 -125 -360 -86 -514 50 -192 150 -292 188 -187
3 9 -10 46 -29 82 -87 167 -86 357 2 528 35 66 35 70 20 94 -23 35 -68 34 -95
-3z"/>
<path d="M3470 7879 c-355 -46 -704 -211 -963 -456 -65 -61 -81 -91 -68 -126
15 -40 40 -57 81 -57 33 0 49 10 124 74 233 199 506 334 776 382 132 24 398
24 544 0 283 -46 592 -199 802 -398 67 -64 138 -67 170 -7 29 58 8 92 -126
199 -269 214 -564 344 -880 386 -114 15 -355 17 -460 3z"/>
<path d="M3509 7450 c-149 -24 -319 -81 -437 -147 -83 -46 -248 -171 -295
-222 -44 -48 -48 -87 -14 -125 12 -15 36 -29 53 -32 27 -5 40 2 110 61 176
150 350 241 539 280 113 24 333 24 445 1 213 -45 460 -175 584 -305 59 -62
156 -31 156 51 0 30 -9 44 -67 100 -96 91 -177 148 -295 207 -113 55 -218 92
-330 117 -85 19 -365 27 -449 14z"/>
<path d="M3527 7024 c-88 -16 -196 -58 -280 -108 -75 -46 -173 -133 -191 -171
-29 -60 11 -125 74 -125 32 0 48 10 110 65 40 36 95 78 124 94 137 79 325 109
476 77 100 -21 240 -91 320 -160 36 -30 77 -58 92 -61 55 -13 118 46 103 95
-10 32 -115 128 -192 176 -193 121 -404 160 -636 118z"/>
<path d="M3590 6621 c-105 -34 -190 -91 -230 -156 -38 -62 -5 -125 65 -125 22
0 43 11 72 38 58 54 107 75 185 80 55 3 76 0 121 -21 30 -13 72 -41 94 -61 63
-56 131 -45 156 27 24 67 -116 189 -253 221 -84 20 -142 19 -210 -3z"/>
<path d="M1283 6091 c-107 -36 -183 -112 -220 -216 -17 -47 -18 -144 -16
-1672 1 -1794 -3 -1677 65 -1779 40 -58 124 -119 193 -139 41 -12 189 -15 865
-17 l815 -3 3 -148 3 -147 -152 0 c-162 0 -201 -9 -228 -52 -11 -17 -16 -70
-19 -196 l-5 -174 -758 7 c-698 7 -760 7 -784 -9 -31 -21 -35 -70 -6 -86 14
-7 1274 -10 3995 -10 3963 0 3976 0 3996 20 23 23 25 39 8 63 -12 16 -153 17
-2123 20 l-2110 2 -5 180 c-5 191 -11 213 -57 234 -14 6 -89 11 -174 11 l-150
0 3 143 3 142 825 5 825 5 59 24 c107 43 190 149 216 276 7 34 9 572 8 1650
-3 1576 -3 1601 -23 1647 -47 109 -118 179 -221 218 -54 20 -66 20 -2417 20
-2244 -1 -2365 -2 -2414 -19z m4780 -210 c21 -12 46 -40 57 -62 20 -37 20 -65
20 -1379 l0 -1340 -2440 0 -2440 0 2 1349 c3 1345 3 1350 24 1377 30 41 68 66
111 74 21 4 1071 7 2333 6 l2295 -1 38 -24z m85 -3091 c6 -181 -14 -241 -93
-288 l-40 -23 -2315 7 c-2557 7 -2349 1 -2410 70 l-30 35 0 149 0 150 2443 -2
2442 -3 3 -95z m-1960 -732 l2 -208 -490 0 -490 0 0 205 0 205 458 3 c251 1
471 2 487 2 l30 0 3 -207z m370 -410 l-3 -93 -237 0 c-131 0 -515 1 -853 3
l-615 2 0 90 0 90 855 0 856 0 -3 -92z"/>
<path d="M3042 5645 c-114 -26 -208 -79 -298 -169 -140 -141 -204 -291 -204
-480 0 -238 89 -418 374 -756 l80 -95 -144 -5 c-80 -3 -150 -8 -156 -12 -5 -4
-37 -81 -69 -172 -32 -91 -61 -166 -65 -166 -8 0 -44 97 -90 241 -18 57 -37
99 -46 103 -9 3 -176 6 -373 6 -264 0 -360 -3 -369 -12 -7 -7 -12 -24 -12 -38
0 -50 3 -50 335 -50 170 0 319 -3 330 -6 16 -4 38 -54 105 -242 l85 -237 35 0
c40 0 23 -35 145 305 l62 175 155 3 154 2 59 -72 c78 -94 191 -223 335 -378
63 -69 136 -149 162 -178 51 -56 65 -61 96 -34 23 20 164 176 359 397 77 88
164 183 192 210 l52 50 244 3 c214 3 245 1 245 -12 0 -26 111 -489 123 -516
17 -35 61 -39 80 -8 8 13 45 133 82 268 132 486 148 541 155 533 3 -4 24 -55
44 -113 60 -166 30 -150 281 -150 l215 0 15 24 c12 18 13 30 6 50 l-11 26
-184 0 c-135 0 -186 3 -193 13 -5 6 -33 84 -62 172 -65 198 -89 249 -118 253
-40 6 -45 -9 -198 -583 -31 -115 -59 -213 -63 -217 -4 -4 -22 57 -40 135 -19
78 -39 160 -45 182 l-12 40 -233 3 c-129 1 -232 6 -230 11 2 5 45 56 97 112
263 290 351 467 353 709 2 327 -208 600 -522 676 -84 21 -232 18 -319 -6 -131
-37 -248 -110 -313 -195 -18 -25 -36 -45 -41 -45 -4 0 -36 30 -71 68 -116 122
-246 181 -411 188 -64 2 -122 -1 -163 -11z m173 -104 c15 -6 9 -8 -22 -8 -23
0 -40 4 -37 8 6 11 32 10 59 0z m1107 -2 c159 -33 314 -157 388 -310 50 -105
64 -178 57 -294 -10 -143 -57 -268 -155 -404 -53 -74 -280 -331 -293 -331 -3
0 -30 69 -59 153 -94 267 -119 330 -132 338 -24 16 -57 9 -72 -13 -8 -13 -60
-137 -115 -277 l-99 -254 -21 41 c-32 63 -209 492 -260 631 -26 68 -53 129
-63 134 -37 24 -60 -12 -133 -207 -38 -103 -73 -190 -77 -192 -18 -11 -114
221 -142 343 -29 128 -18 225 38 348 51 110 180 235 244 235 27 0 155 -137
186 -199 30 -59 61 -84 86 -71 10 5 39 43 65 85 120 193 340 289 557 244z
m-1199 -6 c-7 -2 -21 -2 -30 0 -10 3 -4 5 12 5 17 0 24 -2 18 -5z m174 1 c-3
-3 -12 -4 -19 -1 -8 3 -5 6 6 6 11 1 17 -2 13 -5z m-421 -106 c-35 -26 -65
-56 -94 -93 -12 -16 -25 -26 -27 -23 -8 7 123 138 137 138 7 0 0 -10 -16 -22z
m-134 -150 c-7 -7 -12 -20 -12 -30 0 -10 -5 -18 -11 -18 -5 0 -8 -3 -6 -7 7
-12 -9 -48 -16 -37 -7 13 41 119 50 110 4 -3 1 -12 -5 -18z m-70 -218 c-2 -22
-6 -40 -8 -40 -2 0 -4 18 -4 40 0 22 3 40 8 40 4 0 6 -18 4 -40z m1 -137 c4
-38 9 -81 12 -98 2 -16 -1 -10 -9 15 -18 64 -29 150 -18 150 5 0 12 -30 15
-67z m54 -216 c-2 -6 -11 9 -19 35 -9 25 -14 49 -10 52 7 8 34 -72 29 -87z
m867 -278 c63 -156 135 -333 159 -394 25 -62 54 -115 65 -123 27 -17 55 -3 70
35 6 15 55 139 108 275 113 286 91 281 174 41 28 -80 50 -152 50 -161 -1 -10
-30 -48 -66 -87 -35 -38 -117 -129 -180 -202 l-117 -131 -31 31 c-81 82 -277
372 -370 546 -36 68 -68 132 -72 143 -3 10 -9 16 -14 13 -10 -6 0 24 53 157
19 48 38 101 42 118 4 17 9 30 11 28 2 -3 55 -132 118 -289z m-844 251 c0 -5
-2 -10 -4 -10 -3 0 -8 5 -11 10 -3 6 -1 10 4 10 6 0 11 -4 11 -10z m60 -93 c0
-6 -9 0 -20 13 -11 13 -20 25 -20 28 0 3 9 -3 20 -13 11 -10 20 -23 20 -28z
m20 -27 c0 -5 -2 -10 -4 -10 -3 0 -8 5 -11 10 -3 6 -1 10 4 10 6 0 11 -4 11
-10z m160 -220 c0 -5 -2 -10 -4 -10 -3 0 -8 5 -11 10 -3 6 -1 10 4 10 6 0 11
-4 11 -10z m193 -65 c-3 -9 -8 -14 -10 -11 -3 3 -2 9 2 15 9 16 15 13 8 -4z
m103 -70 c-35 -74 -41 -70 -9 5 15 33 28 58 31 55 3 -2 -7 -29 -22 -60z m-219
49 c-3 -3 8 -19 25 -36 24 -23 33 -27 44 -17 8 6 14 18 14 27 0 8 3 12 6 9 4
-3 -1 -22 -10 -41 l-16 -35 -39 42 c-35 37 -43 57 -24 57 4 0 4 -3 0 -6z m195
-139 c-2 -15 -9 -22 -16 -18 -6 4 -5 -1 3 -10 7 -10 15 -31 17 -48 2 -16 15
-42 28 -57 14 -15 43 -47 65 -72 22 -25 51 -58 65 -73 15 -15 26 -33 26 -38 0
-6 4 -8 8 -5 4 2 14 -4 21 -16 10 -17 10 -19 -1 -16 -7 2 -70 69 -139 148
l-127 144 16 43 c18 46 42 60 34 18z m258 -385 c6 -11 15 -18 21 -15 5 4 8 1
7 -6 -2 -7 7 -18 20 -24 13 -7 35 -31 50 -54 14 -22 34 -41 43 -41 19 0 42
-24 32 -33 -3 -4 -1 -7 6 -7 7 0 33 23 59 50 25 28 51 50 57 50 5 0 -1 -11
-15 -24 -22 -21 -45 -48 -87 -105 -10 -14 -19 -8 -65 44 -29 33 -79 88 -112
123 -38 39 -53 62 -43 62 9 0 21 -9 27 -20z"/>
<path d="M3685 2848 c-113 -62 -146 -199 -68 -281 41 -43 76 -57 138 -57 73 0
120 23 153 73 58 88 23 210 -72 257 -46 22 -119 26 -151 8z m115 -98 c22 -12
42 -64 33 -88 -32 -91 -163 -78 -163 17 0 65 70 103 130 71z"/>
<path d="M7153 5400 c-54 -13 -139 -60 -176 -99 -20 -20 -48 -61 -64 -91 l-28
-55 -3 -609 c-3 -679 -5 -657 66 -751 43 -57 112 -107 183 -132 l49 -18 0
-145 c0 -166 8 -190 63 -190 25 0 54 19 142 91 61 51 151 125 201 165 l91 73
699 3 699 3 61 32 c80 42 149 119 169 187 13 45 15 142 13 672 l-3 619 -28 57
c-35 72 -93 130 -165 165 l-57 28 -940 2 c-517 0 -955 -2 -972 -7z m1891 -114
c66 -20 110 -57 140 -118 l25 -53 3 -595 2 -595 -23 -48 c-13 -26 -37 -59 -55
-72 -70 -54 -50 -52 -806 -60 -548 -5 -709 -9 -725 -19 -11 -8 -85 -68 -165
-134 l-145 -121 -3 127 c-3 136 -9 152 -57 152 -47 0 -128 33 -166 67 -84 76
-80 39 -82 706 l-2 592 30 53 c31 57 88 104 146 120 21 6 376 11 935 11 750 1
909 -1 948 -13z"/>
<path d="M7506 5030 c-93 -46 -130 -114 -124 -225 3 -63 8 -79 35 -117 125
-174 396 -100 411 113 7 100 -39 189 -119 229 -52 27 -150 26 -203 0z m168
-99 c39 -26 55 -57 56 -106 1 -119 -135 -176 -216 -90 -50 54 -51 120 -2 173
43 46 112 55 162 23z"/>
<path d="M8384 5042 c-6 -4 -19 -22 -28 -40 -14 -28 -142 -347 -237 -594 l-30
-76 -403 -4 c-323 -2 -406 -6 -419 -17 -24 -19 -22 -78 2 -91 13 -6 174 -10
454 -10 357 0 437 2 446 14 6 7 24 51 40 97 37 107 179 481 186 487 8 8 10 5
80 -168 120 -297 167 -400 189 -415 15 -11 50 -15 131 -15 126 0 155 11 155
59 0 45 -23 55 -128 61 l-94 5 -72 175 c-111 268 -226 523 -239 532 -15 10
-19 10 -33 0z"/>
<path d="M7365 3040 c-158 -23 -284 -87 -400 -204 -142 -144 -196 -266 -203
-461 -5 -148 12 -236 67 -349 86 -175 227 -294 416 -353 46 -14 92 -18 200
-18 131 0 146 2 226 31 218 78 396 267 455 484 27 99 25 263 -4 365 -69 241
-234 409 -473 483 -79 24 -201 34 -284 22z m277 -140 c149 -50 223 -106 303
-226 62 -94 95 -201 95 -314 0 -115 -18 -188 -68 -284 -44 -85 -153 -199 -232
-243 -189 -107 -405 -105 -588 4 -181 108 -282 285 -282 498 0 199 76 360 222
470 125 94 211 123 362 124 84 1 111 -3 188 -29z"/>
<path d="M7402 2733 c-5 -10 -12 -34 -16 -54 -6 -33 -12 -38 -70 -63 -74 -31
-124 -80 -162 -156 -24 -47 -28 -67 -29 -140 0 -69 4 -94 23 -132 97 -197 345
-245 505 -98 75 68 101 130 102 235 0 71 -4 88 -33 147 -38 77 -86 120 -164
147 -52 17 -53 19 -58 62 -3 24 -9 50 -13 57 -12 19 -75 15 -85 -5z m103 -204
c104 -26 169 -132 146 -239 -39 -180 -250 -241 -368 -107 -89 101 -62 265 52
325 60 31 107 37 170 21z"/>
<path d="M7474 2413 c-15 -21 -29 -40 -30 -42 -2 -2 -11 2 -19 9 -22 18 -65
-2 -65 -30 0 -35 28 -77 66 -101 36 -22 37 -22 50 -4 8 10 14 23 14 28 0 5 16
36 36 69 26 43 34 66 30 83 -10 39 -48 33 -82 -12z"/>
</g>
</svg>
